<svg width="259" height="206" viewBox="0 0 259 206" fill="none" xmlns="http://www.w3.org/2000/svg">
<path d="M223.841 28.8273C223.723 28.1675 224.176 27.5063 224.763 27.1827C225.35 26.8591 226.043 26.7999 226.716 26.776C230.883 26.6249 235.016 27.5076 239.059 28.5251C241.229 29.0716 242.484 30.5475 243.193 32.4024C239.577 31.5322 235.893 30.8459 232.184 30.9807C231.512 31.0046 230.819 31.0638 230.23 31.3874C229.644 31.711 229.19 32.3709 229.309 33.032C229.338 33.1982 229.378 33.3594 229.425 33.5156C226.79 32.7285 224.297 31.361 223.841 28.8273ZM249.898 45.864L246.062 69.2977L248.788 84.9277L222.116 86.1001L221.946 73.073L212.393 56.0766C210.998 54.2394 209.93 52.6502 209.41 51.775C206.649 47.1295 209.255 44.674 212.387 41.3004C214.822 38.6798 217.307 36.1059 219.844 33.5836C220.437 32.9917 221.077 32.381 221.892 32.1858C223.501 31.8042 225.074 33.3305 225.314 34.9675C225.554 36.6046 224.833 38.2227 224.006 39.6545C223.001 41.3923 221.811 43.0231 220.462 44.5077C220.174 44.8263 219.855 45.2016 219.916 45.626C219.965 45.9672 220.242 46.2241 220.505 46.4457C222.524 48.1584 224.643 49.813 226.441 51.7385L234.36 41.6152C232.613 41.5132 229.67 41.6605 229.358 38.7818C229.358 38.7818 229.11 36.7834 231.88 36.4723C231.885 36.4711 231.893 36.4698 231.898 36.4698C235.373 36.0895 242.073 37.0932 243.745 37.3236C243.792 37.3286 243.833 37.3349 243.871 37.34V37.3412C244.318 37.4004 244.764 37.4646 245.209 37.5339C245.654 37.6044 246.099 37.6775 246.542 37.7543C246.763 37.7933 246.985 37.8311 247.207 37.8714C247.649 37.952 248.091 38.0351 248.53 38.1207L248.661 38.1459C248.771 38.1686 248.88 38.1887 248.99 38.2101C249.057 38.224 249.123 38.2378 249.19 38.2504C251.046 38.6207 250.832 41.857 249.898 45.864Z" fill="white"/>
<path d="M253.851 155.75C249.277 163.009 243.133 165.394 235.789 164.059C231.871 163.347 227.61 161.576 223.066 158.921C223.066 158.92 223.065 158.92 223.065 158.92L166.226 114.859L161.322 62.3075C172.548 62.9271 183.094 69.0056 192.36 85.3546L218.352 108.139L218.295 86.2676L222.117 86.0989L248.79 84.9265L255.576 84.6281L257.903 137.424V137.432C258.67 143.811 257.288 150.295 253.851 155.75ZM249.148 38.3159C249.039 38.2945 248.929 38.2744 248.821 38.2517L248.69 38.2265C248.251 38.1396 247.809 38.0552 247.367 37.9747C247.145 37.9344 246.923 37.8953 246.702 37.855C246.258 37.7757 245.816 37.7014 245.371 37.6309C244.925 37.5591 244.479 37.4936 244.032 37.4332C243.994 37.4281 243.953 37.4218 243.906 37.4168C242.235 37.1826 235.538 36.1613 232.061 36.5328C232.056 36.5328 232.049 36.5341 232.044 36.5353C230.8 35.8075 229.819 34.8353 229.425 33.5156C229.377 33.3594 229.338 33.1982 229.309 33.032C229.19 32.3722 229.644 31.7111 230.23 31.3874C230.817 31.0638 231.511 31.0046 232.184 30.9807C235.893 30.8459 239.578 31.531 243.193 32.4024C243.639 32.5094 244.084 32.6177 244.527 32.7298C247.33 33.435 248.607 35.6966 249.148 38.3159Z" fill="white"/>
<path d="M249.148 38.3159C249.039 38.2945 248.929 38.2744 248.821 38.2517L248.69 38.2265C248.251 38.1396 247.809 38.0552 247.367 37.9747C247.145 37.9344 246.923 37.8953 246.702 37.855C246.258 37.7757 245.816 37.7014 245.371 37.6309C244.925 37.5591 244.479 37.4936 244.032 37.4332C243.994 37.4281 243.953 37.4218 243.906 37.4168C242.235 37.1826 235.538 36.1613 232.061 36.5328C232.056 36.5328 232.049 36.5341 232.044 36.5353C230.8 35.8075 229.819 34.8353 229.425 33.5156C229.377 33.3594 229.338 33.1982 229.309 33.032C229.19 32.3722 229.644 31.7111 230.23 31.3874C230.817 31.0638 231.511 31.0046 232.184 30.9807C235.893 30.8459 239.578 31.531 243.193 32.4024C243.639 32.5094 244.084 32.6177 244.527 32.7298C247.33 33.435 248.607 35.6966 249.148 38.3159Z" stroke="#111111" stroke-width="1.4" stroke-miterlimit="10" stroke-linecap="round" stroke-linejoin="round"/>
<path d="M223.841 28.8273C223.723 28.1675 224.176 27.5063 224.763 27.1827C225.35 26.8591 226.043 26.7999 226.716 26.776C230.883 26.6249 235.016 27.5076 239.059 28.5251C241.229 29.0716 242.484 30.5475 243.193 32.4024C239.577 31.5322 235.893 30.8459 232.184 30.9807C231.512 31.0046 230.819 31.0638 230.23 31.3874C229.644 31.711 229.19 32.3709 229.309 33.032C229.338 33.1982 229.378 33.3594 229.425 33.5156C226.79 32.7285 224.297 31.361 223.841 28.8273ZM253.851 155.75C249.277 163.009 243.133 165.394 235.789 164.059C231.871 163.347 227.61 161.576 223.066 158.921C223.066 158.92 223.065 158.92 223.065 158.92L166.226 114.859L161.322 62.3075C172.548 62.9271 183.094 69.0055 192.36 85.3546L218.352 108.139L218.295 86.2676L222.117 86.0989L248.79 84.9265L255.576 84.628L257.903 137.424V137.432C258.67 143.811 257.288 150.295 253.851 155.75Z" stroke="#111111" stroke-width="1.4" stroke-miterlimit="10" stroke-linecap="round" stroke-linejoin="round"/>
<path d="M249.898 45.864L246.062 69.2977L248.788 84.9277L222.116 86.1001L221.946 73.073L212.393 56.0766C210.998 54.2393 209.93 52.6502 209.41 51.775C206.649 47.1295 209.255 44.6739 212.387 41.3004C214.822 38.6798 217.307 36.1059 219.844 33.5836C220.437 32.9917 221.077 32.381 221.892 32.1858C223.501 31.8042 225.074 33.3304 225.314 34.9675C225.554 36.6045 224.833 38.2227 224.006 39.6545C223.001 41.3923 221.811 43.023 220.462 44.5077C220.174 44.8263 219.855 45.2016 219.916 45.626C219.965 45.9672 220.242 46.2241 220.505 46.4457C222.524 48.1583 224.643 49.813 226.441 51.7384L234.36 41.6152C232.613 41.5132 229.67 41.6605 229.358 38.7818C229.358 38.7818 229.11 36.7834 231.88 36.4723C231.885 36.4711 231.893 36.4698 231.898 36.4698C235.373 36.0895 242.073 37.0931 243.745 37.3236C243.792 37.3286 243.833 37.3349 243.871 37.34V37.3412C244.318 37.4004 244.764 37.4646 245.209 37.5339C245.654 37.6044 246.099 37.6774 246.542 37.7543C246.763 37.7933 246.985 37.8311 247.207 37.8714C247.649 37.952 248.091 38.0351 248.53 38.1207L248.661 38.1459C248.771 38.1686 248.88 38.1887 248.99 38.2101C249.057 38.224 249.123 38.2378 249.19 38.2504C251.046 38.6206 250.832 41.857 249.898 45.864Z" stroke="#111111" stroke-width="1.4" stroke-miterlimit="10" stroke-linecap="round" stroke-linejoin="round"/>
<path d="M247.933 51.2222C248.141 47.5086 247.704 43.1314 243.546 42.3078C239.71 41.5472 235.784 40.9113 231.786 41.2047C231.142 41.2525 230.475 41.3306 229.901 41.6442C229.325 41.9577 228.867 42.5672 228.955 43.1553C229.525 46.9457 235.718 47.569 238.839 47.8523C239.322 47.8964 239.893 47.9871 240.054 48.4089C240.116 48.5726 240.101 48.7565 240.084 48.9353C239.555 54.6461 239.212 60.3166 239.173 66.016L247.933 51.2222Z" fill="white"/>
<path d="M247.933 51.2222C248.141 47.5086 247.704 43.1314 243.546 42.3078C239.71 41.5472 235.784 40.9113 231.786 41.2047C231.142 41.2525 230.475 41.3306 229.901 41.6442C229.325 41.9577 228.867 42.5672 228.955 43.1553C229.525 46.9457 235.718 47.569 238.839 47.8523C239.322 47.8964 239.893 47.9871 240.054 48.4089C240.116 48.5726 240.101 48.7565 240.084 48.9353C239.555 54.6461 239.212 60.3166 239.173 66.016" stroke="#111111" stroke-width="1.4" stroke-miterlimit="10" stroke-linecap="round" stroke-linejoin="round"/>
<path d="M226.733 22.9428V6.66671H227.746H228.556V5.45278H227.746V4.64307H229.972V3.22639H227.746V2.21394H230.782V1H228.353H224.507V6.87071V22.9805C221.623 23.546 219.446 26.0872 219.446 29.1371C219.446 32.6026 222.256 35.412 225.721 35.412C229.187 35.412 231.996 32.6026 231.996 29.1371C231.997 26.0141 229.718 23.4263 226.733 22.9428ZM225.722 32.7789C223.71 32.7789 222.079 31.1482 222.079 29.1358C222.079 27.1235 223.71 25.4928 225.722 25.4928C227.735 25.4928 229.365 27.1235 229.365 29.1358C229.365 31.1482 227.735 32.7789 225.722 32.7789Z" fill="white"/>
<path d="M226.733 22.9428V6.66671H227.746H228.556V5.45278H227.746V4.64307H229.972V3.22639H227.746V2.21394H230.782V1H228.353H224.507V6.87071V22.9805C221.623 23.546 219.446 26.0872 219.446 29.1371C219.446 32.6026 222.256 35.412 225.721 35.412C229.187 35.412 231.996 32.6026 231.996 29.1371C231.997 26.0141 229.718 23.4263 226.733 22.9428ZM225.722 32.7789C223.71 32.7789 222.079 31.1482 222.079 29.1358C222.079 27.1235 223.71 25.4928 225.722 25.4928C227.735 25.4928 229.365 27.1235 229.365 29.1358C229.365 31.1482 227.735 32.7789 225.722 32.7789Z" stroke="#111111" stroke-width="1.4" stroke-miterlimit="10" stroke-linecap="round" stroke-linejoin="round"/>
<path d="M218.337 102.719L256.513 105.91" stroke="#111111" stroke-width="1.4" stroke-miterlimit="10" stroke-linecap="round" stroke-linejoin="round"/>
<path d="M223.787 98.1689C224.87 98.1689 225.749 97.2905 225.749 96.207C225.749 95.1234 224.87 94.2451 223.787 94.2451C222.703 94.2451 221.825 95.1234 221.825 96.207C221.825 97.2905 222.703 98.1689 223.787 98.1689Z" stroke="#111111" stroke-width="1.4" stroke-miterlimit="10" stroke-linecap="round" stroke-linejoin="round"/>
<path d="M222.044 73.0843L232.01 78.3846L222.058 78.411L222.044 73.0843Z" fill="#111111"/>
<path d="M226.75 52.4852C229.97 57.3447 233.267 62.3982 234.207 68.1505" stroke="#111111" stroke-width="1.4" stroke-miterlimit="10" stroke-linecap="round" stroke-linejoin="round"/>
<path d="M59.3993 63.8413C46.1455 63.0215 35.759 73.1989 28.3105 94.6355L2.66797 150.793C-2.18651 161.425 4.01916 173.891 15.2795 176.13L36.4882 180.348L70.797 97.8088L59.3993 63.8413Z" fill="white"/>
<path d="M59.3993 63.8413C46.1455 63.0215 35.759 73.1989 28.3105 94.6355L2.66797 150.793C-2.18651 161.425 4.01916 173.891 15.2795 176.13L36.4882 180.348L70.797 97.8088L59.3993 63.8413Z" stroke="#111111" stroke-width="1.4" stroke-miterlimit="10" stroke-linecap="round" stroke-linejoin="round"/>
<path d="M203.633 10.5301H48.0885V187.706H203.633V10.5301Z" fill="white"/>
<path d="M203.633 10.5301H48.0885V187.706H203.633V10.5301Z" stroke="#111111" stroke-width="1.4" stroke-miterlimit="10" stroke-linecap="round" stroke-linejoin="round"/>
<path d="M142.172 88.4978L154.638 149.692H97.0854L112.49 90.2708C103.335 85.4541 97.0854 75.8635 97.0854 64.8008C97.0854 48.9089 109.969 36.0253 125.861 36.0253C135.448 36.0253 143.938 40.711 149.168 47.9191C149.759 48.7338 150.307 49.5788 150.812 50.4552C151.43 51.5281 151.981 52.6439 152.459 53.7973C153.078 55.2883 153.574 56.8435 153.934 58.4491C154.396 60.4929 154.639 62.6185 154.639 64.8021C154.638 74.6345 149.698 83.3071 142.172 88.4978Z" fill="#111111"/>
<path d="M126.901 36.0429C129.105 38.0968 130.821 40.711 131.991 43.5003C133.822 47.8624 134.425 52.6439 134.584 57.3724L138.406 62.3578C139.648 63.9773 138.493 66.317 136.452 66.317H134.292L133.954 76.7097C133.796 81.607 130.532 84.215 126.099 84.652C124.541 84.8056 122.97 84.6545 121.454 84.2654C117.755 83.3146 107.752 80.4132 102.963 75.7791C102.422 75.2553 99.5763 72.4043 99.0374 71.854" stroke="white" stroke-width="1.4" stroke-miterlimit="10" stroke-linecap="round" stroke-linejoin="round"/>
<path d="M102.124 69.4715C108.317 69.4715 113.338 64.4509 113.338 58.2577C113.338 52.0645 108.317 47.0439 102.124 47.0439C95.9306 47.0439 90.91 52.0645 90.91 58.2577C90.91 64.4509 95.9306 69.4715 102.124 69.4715Z" stroke="white" stroke-width="1.4" stroke-miterlimit="10" stroke-linecap="round" stroke-linejoin="round"/>
<path d="M94.135 58.2577C94.135 53.8452 97.7126 50.2676 102.125 50.2676C106.538 50.2676 110.115 53.8452 110.115 58.2577" stroke="white" stroke-width="1.4" stroke-miterlimit="10" stroke-linecap="round" stroke-linejoin="round"/>
<path d="M106.33 62.3226L104.594 50.658" stroke="white" stroke-width="1.4" stroke-miterlimit="10" stroke-linecap="round" stroke-linejoin="round"/>
<path d="M124.691 57.6268C125.195 57.6268 125.603 56.9367 125.603 56.0854C125.603 55.2342 125.195 54.5441 124.691 54.5441C124.188 54.5441 123.779 55.2342 123.779 56.0854C123.779 56.9367 124.188 57.6268 124.691 57.6268Z" fill="white"/>
<path d="M134.574 57.3472L131.77 54.6839" stroke="white" stroke-width="1.4" stroke-miterlimit="10" stroke-linecap="round" stroke-linejoin="round"/>
<path d="M132.331 70.8038H125.603" stroke="white" stroke-width="1.4" stroke-miterlimit="10" stroke-linecap="round" stroke-linejoin="round"/>
<path d="M122.548 47.5375C122.97 47.1245 123.403 46.7089 123.927 46.4394C125.458 45.6511 127.006 46.7933 126.191 48.4392C125.405 50.0258 124.26 51.4324 122.866 52.5268C122.069 53.1526 120.364 53.815 119.609 52.7219C118.7 51.406 120.456 49.5901 121.284 48.7792C121.692 48.3787 122.1 47.9783 122.509 47.5766C122.521 47.564 122.535 47.5501 122.548 47.5375Z" fill="white"/>
<path d="M113.169 57.4279C114.723 56.6773 115.432 54.7645 115.288 53.0443C115.145 51.3242 114.325 49.7438 113.521 48.2163C114.988 48.5953 116.453 48.2742 117.642 47.3348C118.83 46.3954 119.543 44.883 119.513 43.3681C120.41 44.1476 121.704 44.4309 122.878 44.2446C124.05 44.0582 125.126 43.3303 125.736 42.3116C126.462 43.2573 127.818 43.834 129.01 43.8504C129.994 43.863 131.139 43.5306 131.477 42.6075" stroke="white" stroke-width="1.4" stroke-miterlimit="10" stroke-linecap="round" stroke-linejoin="round"/>
<path d="M120.435 83.9959L114.46 96.2448" stroke="white" stroke-width="1.4" stroke-miterlimit="10" stroke-linecap="round" stroke-linejoin="round"/>
<path d="M134.205 69.0295C141.089 63.9975 147.836 61.8819 154.484 61.824" stroke="white" stroke-width="1.4" stroke-miterlimit="10" stroke-linecap="round" stroke-linejoin="round"/>
<path d="M149.695 125.428L138.92 149.692" stroke="white" stroke-width="1.4" stroke-miterlimit="10" stroke-linecap="round" stroke-linejoin="round"/>
<path d="M118.98 86.9766L128.897 109.56L108.677 104.975" stroke="white" stroke-width="1.4" stroke-miterlimit="10" stroke-linecap="round" stroke-linejoin="round"/>
<path d="M113.338 106.032L110.114 115.868H105.854" stroke="white" stroke-width="1.4" stroke-miterlimit="10" stroke-linecap="round" stroke-linejoin="round"/>
<path d="M110.114 115.868L114.46 149.692" stroke="white" stroke-width="1.4" stroke-miterlimit="10" stroke-linecap="round" stroke-linejoin="round"/>
<path d="M92.8732 188.195C93.9567 188.195 94.8351 187.317 94.8351 186.233C94.8351 185.15 93.9567 184.271 92.8732 184.271C91.7896 184.271 90.9113 185.15 90.9113 186.233C90.9113 187.317 91.7896 188.195 92.8732 188.195Z" stroke="#111111" stroke-width="1.4" stroke-miterlimit="10" stroke-linecap="round" stroke-linejoin="round"/>
<path d="M36.5259 180.319L37.0397 180.418L36.5247 180.346L36.5259 180.319Z" stroke="#111111" stroke-width="1.4" stroke-miterlimit="10" stroke-linecap="round" stroke-linejoin="round"/>
<path d="M161.243 193.876C160.845 194.839 159.568 195.173 158.573 194.866C157.577 194.558 156.801 193.792 156.068 193.051C154.511 191.476 152.954 189.902 151.396 188.326C153.065 190.254 154.642 192.278 156.246 194.474C156.782 195.208 157.323 196.18 156.868 196.966C156.359 197.845 155.06 197.734 154.103 197.397C150.965 196.29 148.365 194.071 145.846 191.898C143.487 189.864 141.127 187.831 138.77 185.8C143.02 189.494 146.848 193.892 150.094 198.481C150.428 198.953 150.773 199.488 150.699 200.063C150.62 200.68 150.052 201.146 149.446 201.285C148.84 201.425 148.207 201.299 147.61 201.132C144.186 200.165 141.334 197.845 138.588 195.581C136.032 193.474 133.477 191.367 130.921 189.261C130.781 189.516 130.653 189.572 130.857 189.78C134.812 193.821 139.732 197.018 142.754 201.798C143.039 202.246 143.313 202.74 143.299 203.273C143.278 204.123 142.492 204.804 141.656 204.96C140.821 205.117 139.964 204.863 139.179 204.537C136.841 203.562 134.837 201.952 132.866 200.361C129.867 197.941 127.721 193.071 123.866 193.098C122.872 193.105 105.49 189.88 105.49 189.88L99.3962 189.038L103.557 161.945L113.339 165.351L113.309 165.448C119.968 165.997 126.629 166.546 133.288 167.094C137.377 167.431 141.676 167.841 145.045 170.182C147.203 171.681 148.789 173.852 150.331 175.982C152.51 178.989 154.686 181.995 156.864 185.002C158.389 187.109 159.927 189.236 160.966 191.619C161.274 192.332 161.54 193.154 161.243 193.876Z" fill="white"/>
<path d="M161.243 193.876C160.845 194.839 159.568 195.173 158.573 194.866C157.577 194.558 156.801 193.792 156.068 193.051C154.511 191.476 152.954 189.902 151.396 188.326C153.065 190.254 154.642 192.278 156.246 194.474C156.782 195.208 157.323 196.18 156.868 196.966C156.359 197.845 155.06 197.734 154.103 197.397C150.965 196.29 148.365 194.071 145.846 191.898C143.487 189.864 141.127 187.831 138.77 185.8C143.02 189.494 146.848 193.892 150.094 198.481C150.428 198.953 150.773 199.488 150.699 200.063C150.62 200.68 150.052 201.146 149.446 201.285C148.84 201.425 148.207 201.299 147.61 201.132C144.186 200.165 141.334 197.845 138.588 195.581C136.032 193.474 133.477 191.367 130.921 189.261C130.781 189.516 130.653 189.572 130.857 189.78C134.812 193.821 139.732 197.018 142.754 201.798C143.039 202.246 143.313 202.74 143.299 203.273C143.278 204.123 142.492 204.804 141.656 204.96C140.821 205.117 139.964 204.863 139.179 204.537C136.841 203.562 134.837 201.952 132.866 200.361C129.867 197.941 127.721 193.071 123.866 193.098C122.872 193.105 105.49 189.88 105.49 189.88L99.3962 189.038L103.557 161.945L113.339 165.351L113.309 165.448C119.968 165.997 126.629 166.546 133.288 167.094C137.377 167.431 141.676 167.841 145.045 170.182C147.203 171.681 148.789 173.852 150.331 175.982C152.51 178.989 154.686 181.995 156.864 185.002C158.389 187.109 159.927 189.236 160.966 191.619C161.274 192.332 161.54 193.154 161.243 193.876Z" stroke="#111111" stroke-width="1.4" stroke-miterlimit="10" stroke-linecap="round" stroke-linejoin="round"/>
<path d="M104.647 154.836L103.556 161.942L99.3949 189.035L98.9001 192.262L37.0397 180.418L36.5259 180.319L31.8654 179.427L37.9262 135.351L104.647 154.836Z" fill="white"/>
<path d="M37.9262 135.351L104.647 154.836L103.556 161.942L99.3949 189.035L98.9001 192.262L37.0397 180.418L36.5259 180.319L31.8654 179.427" stroke="#111111" stroke-width="1.4" stroke-miterlimit="10" stroke-linecap="round" stroke-linejoin="round"/>
<path d="M151.464 188.336L144.316 179.365" stroke="#111111" stroke-width="1.4" stroke-miterlimit="10" stroke-linecap="round" stroke-linejoin="round"/>
<path d="M84.1553 148.852L75.2132 187.727" stroke="#111111" stroke-width="1.4" stroke-miterlimit="10" stroke-linecap="round" stroke-linejoin="round"/>
</svg>
