<svg width="33" height="32" viewBox="0 0 33 32" fill="none" xmlns="http://www.w3.org/2000/svg">
<path fill-rule="evenodd" clip-rule="evenodd" d="M27.5008 24.9998V19.9998C27.5008 19.4478 27.949 18.9998 28.501 18.9998C29.053 18.9998 29.5011 19.4478 29.5011 19.9998V25.9998C29.5011 26.5521 29.0534 26.9998 28.501 26.9998H4.50089C3.94842 26.9998 3.50073 26.5521 3.50073 25.9998V15.9999C3.50073 15.4475 3.94842 14.9999 4.50089 14.9999H28.501C29.053 14.9999 29.5011 15.4478 29.5011 15.9999C29.5011 16.5519 29.053 16.9999 28.501 16.9999H5.50104V24.9998H27.5008Z" fill="#111111"/>
<path fill-rule="evenodd" clip-rule="evenodd" d="M29.5 10H3.5V14C3.5 14.5303 3.7105 15.0391 4.086 15.4143C4.461 15.7893 4.9695 16 5.5 16C10.343 16 22.657 16 27.5 16C28.0305 16 28.539 15.7893 28.914 15.4143C29.2895 15.0391 29.5 14.5303 29.5 14C29.5 12.2549 29.5 10 29.5 10Z" fill="#4DB6AC"/>
<path fill-rule="evenodd" clip-rule="evenodd" d="M30.5 10.0001C30.5 9.4477 30.0525 9 29.5 9H3.5C2.9475 9 2.5 9.4477 2.5 10.0001V14.0001C2.5 14.7956 2.81601 15.5587 3.37851 16.1213C3.94151 16.684 4.7045 17.0001 5.5 17.0001C10.343 17.0001 22.657 17.0001 27.5 17.0001C28.2955 17.0001 29.0585 16.684 29.6215 16.1213C30.184 15.5587 30.5 14.7956 30.5 14.0001C30.5 12.255 30.5 10.0001 30.5 10.0001ZM28.5 11.0001H4.5V14.0001C4.5 14.2653 4.6055 14.5196 4.793 14.7072C4.9805 14.8946 5.235 15 5.5 15C10.343 15 22.657 15 27.5 15C27.765 15 28.0195 14.8946 28.207 14.7072C28.3945 14.5196 28.5 14.2653 28.5 14.0001V11.0001Z" fill="#111111"/>
<path fill-rule="evenodd" clip-rule="evenodd" d="M21.5028 9.00007V7.00002C21.5028 5.89611 20.6066 4.99997 19.5028 4.99997H13.5026C12.3987 4.99997 11.5026 5.89611 11.5026 7.00002V9.00007C11.5026 10.104 12.3987 11.0001 13.5026 11.0001H19.5028C20.6066 11.0001 21.5028 10.104 21.5028 9.00007ZM13.5026 9.00007H19.5028V7.00002H13.5026V9.00007Z" fill="#111111"/>
<path fill-rule="evenodd" clip-rule="evenodd" d="M9.5 14V18C9.5 18.552 9.948 19 10.5 19C11.052 19 11.5 18.552 11.5 18V14C11.5 13.448 11.052 13 10.5 13C9.948 13 9.5 13.448 9.5 14Z" fill="#111111"/>
<path fill-rule="evenodd" clip-rule="evenodd" d="M21.5 14V18C21.5 18.552 21.948 19 22.5 19C23.052 19 23.5 18.552 23.5 18V14C23.5 13.448 23.052 13 22.5 13C21.948 13 21.5 13.448 21.5 14Z" fill="#111111"/>
</svg>
